<?xml version="1.0" encoding="UTF-8"?>
<svg xmlns="http://www.w3.org/2000/svg" xmlns:xlink="http://www.w3.org/1999/xlink" width="810pt" height="809.999993pt" viewBox="0 0 810 809.999993" version="1.2">
<g id="surface1">
<path style=" stroke:none;fill-rule:evenodd;fill:rgb(0%,0%,0%);fill-opacity:1;" d="M 298.371094 243 L 511.628906 243 C 542.082031 243 567 267.917969 567 298.371094 L 567 511.628906 C 567 542.082031 542.082031 567 511.628906 567 L 298.371094 567 C 267.917969 567 243 542.082031 243 511.628906 L 243 298.371094 C 243 267.917969 267.917969 243 298.371094 243 "/>
<path style=" stroke:none;fill-rule:nonzero;fill:rgb(100%,100%,100%);fill-opacity:1;" d="M 405 254.613281 C 446.527344 254.613281 484.121094 271.449219 511.335938 298.660156 C 538.550781 325.875 555.386719 363.472656 555.386719 405 C 555.386719 446.527344 538.550781 484.121094 511.335938 511.339844 C 484.121094 538.550781 446.527344 555.386719 405 555.386719 C 363.472656 555.386719 325.875 538.550781 298.660156 511.339844 C 271.449219 484.121094 254.613281 446.527344 254.613281 405 C 254.613281 363.472656 271.449219 325.875 298.660156 298.660156 C 325.875 271.449219 363.472656 254.613281 405 254.613281 Z M 506.050781 303.945312 C 480.191406 278.085938 444.464844 262.089844 405 262.089844 C 365.535156 262.089844 329.808594 278.085938 303.945312 303.945312 C 278.085938 329.808594 262.089844 365.535156 262.089844 405 C 262.089844 444.464844 278.085938 480.191406 303.945312 506.054688 C 329.808594 531.914062 365.535156 547.910156 405 547.910156 C 444.464844 547.910156 480.191406 531.914062 506.050781 506.054688 C 531.914062 480.191406 547.910156 444.464844 547.910156 405 C 547.910156 365.535156 531.914062 329.808594 506.050781 303.945312 "/>
<path style=" stroke:none;fill-rule:evenodd;fill:rgb(100%,100%,100%);fill-opacity:1;" d="M 435.933594 493.109375 C 433.027344 496.015625 429.164062 497.613281 425.058594 497.613281 C 420.953125 497.613281 417.089844 496.015625 414.1875 493.109375 L 322.882812 401.671875 C 315.785156 394.574219 312.757812 387.488281 312.757812 377.976562 C 312.757812 303.460938 303.460938 312.757812 377.976562 312.757812 C 387.488281 312.757812 394.574219 315.785156 401.671875 322.882812 L 493.109375 414.191406 C 496.011719 417.09375 497.613281 420.953125 497.613281 425.058594 C 497.613281 429.164062 496.011719 433.027344 493.109375 435.933594 Z M 342.667969 342.667969 C 340.574219 344.761719 339.527344 347.5 339.527344 350.230469 C 339.527344 352.96875 340.570312 355.710938 342.664062 357.800781 C 344.75 359.890625 347.492188 360.933594 350.230469 360.933594 C 352.96875 360.933594 355.710938 359.890625 357.800781 357.800781 C 359.890625 355.710938 360.933594 352.96875 360.933594 350.230469 C 360.933594 347.492188 359.890625 344.75 357.800781 342.664062 C 355.710938 340.570312 352.96875 339.527344 350.230469 339.527344 C 347.5 339.527344 344.761719 340.574219 342.667969 342.667969 Z M 384.214844 375.394531 C 384.492188 375.117188 384.699219 374.890625 384.851562 374.714844 C 385 374.535156 385.105469 374.390625 385.167969 374.265625 C 385.222656 374.144531 385.246094 374.042969 385.230469 373.964844 C 385.222656 373.890625 385.171875 373.816406 385.097656 373.742188 C 384.996094 373.640625 384.800781 373.5625 384.5 373.503906 C 384.195312 373.449219 383.828125 373.355469 383.398438 373.230469 C 382.96875 373.105469 382.496094 372.910156 381.980469 372.648438 C 381.46875 372.386719 380.949219 371.988281 380.414062 371.453125 C 379.828125 370.871094 379.398438 370.238281 379.128906 369.570312 C 378.867188 368.902344 378.777344 368.191406 378.851562 367.453125 C 378.9375 366.710938 379.199219 365.929688 379.65625 365.113281 C 380.113281 364.300781 380.777344 363.457031 381.644531 362.589844 C 382.4375 361.796875 383.230469 361.171875 384.035156 360.703125 C 384.835938 360.238281 385.617188 359.949219 386.386719 359.828125 C 387.15625 359.707031 387.886719 359.753906 388.59375 359.976562 C 389.289062 360.199219 389.933594 360.597656 390.519531 361.183594 C 391.054688 361.71875 391.445312 362.242188 391.699219 362.761719 C 391.949219 363.277344 392.132812 363.757812 392.246094 364.195312 C 392.363281 364.644531 392.4375 365.019531 392.480469 365.328125 C 392.523438 365.636719 392.601562 365.847656 392.714844 365.960938 C 392.785156 366.03125 392.867188 366.066406 392.96875 366.074219 C 393.066406 366.082031 393.183594 366.054688 393.320312 365.996094 C 393.457031 365.933594 393.613281 365.832031 393.789062 365.6875 C 393.960938 365.539062 394.164062 365.351562 394.390625 365.125 C 394.605469 364.914062 394.78125 364.726562 394.914062 364.570312 C 395.046875 364.417969 395.152344 364.277344 395.242188 364.144531 C 395.324219 364.015625 395.375 363.898438 395.40625 363.789062 C 395.445312 363.683594 395.457031 363.527344 395.453125 363.320312 C 395.453125 363.117188 395.398438 362.8125 395.285156 362.40625 C 395.171875 362.007812 395.007812 361.585938 394.792969 361.152344 C 394.582031 360.714844 394.320312 360.277344 394.003906 359.828125 C 393.691406 359.375 393.335938 358.945312 392.921875 358.535156 C 391.90625 357.519531 390.8125 356.765625 389.625 356.269531 C 388.441406 355.769531 387.21875 355.550781 385.953125 355.613281 C 384.6875 355.671875 383.398438 356.019531 382.089844 356.660156 C 380.78125 357.300781 379.496094 358.25 378.242188 359.503906 C 377.003906 360.738281 376.082031 361.976562 375.457031 363.207031 C 374.832031 364.445312 374.496094 365.652344 374.445312 366.847656 C 374.394531 368.039062 374.625 369.195312 375.125 370.324219 C 375.628906 371.449219 376.382812 372.523438 377.394531 373.535156 C 377.914062 374.054688 378.4375 374.492188 378.964844 374.847656 C 379.496094 375.214844 379.996094 375.503906 380.46875 375.726562 C 380.941406 375.949219 381.367188 376.109375 381.742188 376.214844 C 382.121094 376.3125 382.394531 376.367188 382.566406 376.359375 C 382.738281 376.359375 382.875 376.339844 382.984375 376.308594 C 383.089844 376.28125 383.199219 376.230469 383.324219 376.15625 C 383.433594 376.082031 383.570312 375.984375 383.714844 375.863281 C 383.859375 375.742188 384.023438 375.585938 384.214844 375.394531 Z M 404.820312 385.359375 C 406.105469 384.074219 407.066406 382.824219 407.710938 381.585938 C 408.359375 380.351562 408.703125 379.144531 408.746094 377.945312 C 408.789062 376.757812 408.527344 375.582031 407.96875 374.433594 C 407.410156 373.277344 406.570312 372.144531 405.449219 371.023438 C 404.277344 369.851562 403.070312 368.992188 401.828125 368.46875 C 400.578125 367.9375 399.320312 367.707031 398.046875 367.777344 C 396.777344 367.847656 395.511719 368.207031 394.253906 368.855469 C 392.992188 369.503906 391.761719 370.429688 390.566406 371.625 C 389.265625 372.929688 388.28125 374.199219 387.613281 375.433594 C 386.949219 376.671875 386.59375 377.882812 386.546875 379.074219 C 386.5 380.261719 386.753906 381.433594 387.3125 382.59375 C 387.867188 383.75 388.722656 384.902344 389.871094 386.050781 C 391.035156 387.21875 392.238281 388.066406 393.484375 388.601562 C 394.722656 389.132812 395.980469 389.363281 397.253906 389.292969 C 398.53125 389.222656 399.808594 388.851562 401.078125 388.1875 C 402.347656 387.527344 403.597656 386.582031 404.820312 385.359375 Z M 401.511719 382.367188 C 402.289062 381.585938 402.933594 380.820312 403.449219 380.0625 C 403.960938 379.308594 404.296875 378.550781 404.457031 377.804688 C 404.617188 377.058594 404.578125 376.320312 404.335938 375.585938 C 404.101562 374.851562 403.617188 374.117188 402.882812 373.382812 C 402.144531 372.648438 401.386719 372.167969 400.613281 371.949219 C 399.839844 371.738281 399.070312 371.707031 398.300781 371.867188 C 397.535156 372.027344 396.777344 372.355469 396.027344 372.84375 C 395.28125 373.34375 394.5625 373.9375 393.871094 374.632812 C 393.0625 375.4375 392.398438 376.226562 391.875 376.992188 C 391.351562 377.753906 391.011719 378.511719 390.84375 379.257812 C 390.675781 380 390.714844 380.742188 390.964844 381.464844 C 391.210938 382.195312 391.699219 382.929688 392.441406 383.667969 C 393.179688 384.40625 393.933594 384.882812 394.703125 385.105469 C 395.46875 385.328125 396.246094 385.355469 397.023438 385.183594 C 397.796875 385.019531 398.5625 384.683594 399.316406 384.179688 C 400.070312 383.679688 400.804688 383.070312 401.511719 382.367188 Z M 417.421875 412.261719 L 430.589844 399.089844 C 430.785156 398.898438 430.933594 398.703125 431.027344 398.503906 C 431.125 398.304688 431.179688 398.109375 431.183594 397.914062 C 431.199219 397.714844 431.15625 397.511719 431.058594 397.3125 C 430.960938 397.113281 430.808594 396.90625 430.605469 396.699219 L 428.582031 394.679688 C 428.304688 394.398438 428.027344 394.175781 427.753906 394.023438 C 427.484375 393.871094 427.203125 393.773438 426.90625 393.761719 C 426.617188 393.738281 426.300781 393.78125 425.964844 393.882812 C 425.625 393.988281 425.246094 394.148438 424.828125 394.367188 L 412.730469 399.839844 L 412.683594 399.792969 L 418.292969 387.789062 C 418.523438 387.378906 418.679688 387.007812 418.777344 386.667969 C 418.871094 386.324219 418.894531 385.996094 418.84375 385.679688 C 418.796875 385.371094 418.671875 385.058594 418.476562 384.746094 C 418.289062 384.4375 418.015625 384.109375 417.664062 383.757812 L 415.699219 381.792969 C 415.355469 381.449219 414.980469 381.277344 414.566406 381.277344 C 414.15625 381.277344 413.753906 381.472656 413.367188 381.863281 L 400.195312 395.035156 C 400.121094 395.109375 400.070312 395.199219 400.054688 395.300781 C 400.035156 395.402344 400.058594 395.53125 400.136719 395.675781 C 400.207031 395.824219 400.324219 396.003906 400.484375 396.210938 C 400.640625 396.414062 400.859375 396.65625 401.132812 396.929688 C 401.414062 397.214844 401.660156 397.433594 401.859375 397.589844 C 402.0625 397.742188 402.238281 397.859375 402.390625 397.933594 C 402.542969 398.011719 402.671875 398.039062 402.773438 398.015625 C 402.875 398 402.96875 397.953125 403.042969 397.878906 L 415.070312 385.851562 L 415.089844 385.871094 L 407.210938 402.023438 C 407.152344 402.132812 407.125 402.253906 407.132812 402.375 C 407.140625 402.507812 407.183594 402.652344 407.257812 402.8125 C 407.332031 402.972656 407.457031 403.152344 407.621094 403.355469 C 407.785156 403.558594 407.992188 403.785156 408.25 404.050781 C 408.507812 404.308594 408.738281 404.523438 408.929688 404.6875 C 409.125 404.859375 409.300781 404.988281 409.457031 405.066406 C 409.613281 405.144531 409.757812 405.1875 409.890625 405.195312 C 410.023438 405.199219 410.15625 405.164062 410.28125 405.097656 L 426.582031 397.367188 L 426.609375 397.390625 L 414.578125 409.417969 C 414.503906 409.492188 414.453125 409.582031 414.441406 409.6875 C 414.429688 409.796875 414.449219 409.921875 414.523438 410.0625 C 414.59375 410.210938 414.703125 410.382812 414.863281 410.589844 C 415.023438 410.796875 415.242188 411.039062 415.515625 411.3125 C 415.796875 411.59375 416.042969 411.816406 416.246094 411.976562 C 416.449219 412.128906 416.628906 412.246094 416.777344 412.320312 C 416.925781 412.394531 417.050781 412.421875 417.15625 412.402344 C 417.257812 412.382812 417.347656 412.332031 417.421875 412.261719 Z M 423.660156 418.5 L 437.621094 404.535156 C 437.695312 404.464844 437.738281 404.367188 437.746094 404.257812 C 437.761719 404.148438 437.730469 404.011719 437.648438 403.863281 C 437.574219 403.710938 437.453125 403.527344 437.285156 403.3125 C 437.117188 403.097656 436.890625 402.84375 436.59375 402.546875 C 436.304688 402.257812 436.050781 402.03125 435.835938 401.863281 C 435.621094 401.695312 435.4375 401.574219 435.28125 401.496094 C 435.125 401.410156 434.996094 401.378906 434.882812 401.390625 C 434.769531 401.398438 434.679688 401.445312 434.605469 401.519531 L 420.640625 415.480469 C 420.566406 415.554688 420.519531 415.648438 420.511719 415.757812 C 420.503906 415.871094 420.535156 416.003906 420.609375 416.152344 C 420.683594 416.300781 420.808594 416.492188 420.980469 416.707031 C 421.152344 416.925781 421.382812 417.179688 421.671875 417.46875 C 421.96875 417.765625 422.222656 417.996094 422.4375 418.164062 C 422.652344 418.332031 422.832031 418.449219 422.984375 418.527344 C 423.136719 418.605469 423.269531 418.636719 423.378906 418.621094 C 423.488281 418.613281 423.585938 418.570312 423.660156 418.5 Z M 439.710938 433.265625 L 452.996094 419.980469 C 453.070312 419.90625 453.121094 419.816406 453.144531 419.714844 C 453.167969 419.621094 453.15625 419.5 453.105469 419.355469 C 453.054688 419.21875 452.953125 419.046875 452.792969 418.855469 C 452.636719 418.660156 452.433594 418.4375 452.171875 418.175781 C 451.898438 417.902344 451.664062 417.6875 451.46875 417.53125 C 451.277344 417.371094 451.101562 417.265625 450.953125 417.203125 C 450.800781 417.144531 450.667969 417.121094 450.5625 417.132812 C 450.457031 417.152344 450.363281 417.199219 450.289062 417.273438 L 443.351562 424.210938 C 442.832031 424.734375 442.28125 425.292969 441.714844 425.878906 C 441.148438 426.472656 440.609375 427.042969 440.097656 427.597656 L 440.085938 427.585938 C 440.253906 427.148438 440.417969 426.703125 440.578125 426.253906 C 440.738281 425.804688 440.902344 425.34375 441.066406 424.878906 C 441.226562 424.410156 441.386719 423.933594 441.539062 423.453125 C 441.6875 422.976562 441.847656 422.488281 442.007812 421.992188 L 444.53125 413.707031 C 444.683594 413.265625 444.792969 412.875 444.855469 412.539062 C 444.917969 412.203125 444.933594 411.894531 444.890625 411.625 C 444.847656 411.355469 444.753906 411.097656 444.605469 410.851562 C 444.457031 410.597656 444.238281 410.332031 443.949219 410.046875 L 442.335938 408.429688 C 442.03125 408.125 441.683594 407.960938 441.296875 407.933594 C 440.910156 407.902344 440.535156 408.0625 440.179688 408.421875 L 426.890625 421.707031 C 426.820312 421.78125 426.769531 421.871094 426.746094 421.96875 C 426.726562 422.070312 426.738281 422.1875 426.792969 422.328125 C 426.851562 422.46875 426.957031 422.640625 427.109375 422.835938 C 427.261719 423.035156 427.472656 423.269531 427.738281 423.535156 C 428.011719 423.808594 428.25 424.023438 428.449219 424.175781 C 428.648438 424.328125 428.816406 424.433594 428.960938 424.496094 C 429.105469 424.554688 429.230469 424.578125 429.332031 424.554688 C 429.433594 424.539062 429.523438 424.488281 429.597656 424.414062 L 437.332031 416.679688 C 437.910156 416.101562 438.464844 415.53125 439 414.972656 C 439.527344 414.414062 440.050781 413.84375 440.566406 413.265625 L 440.589844 413.289062 C 440.316406 413.910156 440.050781 414.574219 439.792969 415.269531 C 439.539062 415.96875 439.320312 416.625 439.117188 417.25 L 435.886719 427.839844 C 435.691406 428.410156 435.550781 428.890625 435.464844 429.28125 C 435.375 429.675781 435.34375 430.027344 435.371094 430.332031 C 435.390625 430.636719 435.472656 430.910156 435.617188 431.15625 C 435.753906 431.40625 435.960938 431.664062 436.226562 431.929688 L 437.503906 433.210938 C 437.648438 433.355469 437.816406 433.476562 437.996094 433.578125 C 438.179688 433.671875 438.367188 433.726562 438.566406 433.738281 C 438.757812 433.75 438.953125 433.71875 439.148438 433.644531 C 439.347656 433.5625 439.539062 433.4375 439.710938 433.265625 Z M 466.222656 436.910156 C 466.601562 436.527344 466.867188 436.214844 467.015625 435.980469 C 467.164062 435.742188 467.242188 435.511719 467.242188 435.304688 C 467.246094 435.097656 467.195312 434.789062 467.078125 434.382812 C 466.964844 433.980469 466.773438 433.515625 466.507812 433 C 466.238281 432.484375 465.886719 431.917969 465.453125 431.308594 C 465.011719 430.695312 464.472656 430.070312 463.832031 429.425781 C 462.667969 428.265625 461.4375 427.382812 460.125 426.789062 C 458.820312 426.203125 457.5 425.910156 456.152344 425.914062 C 454.808594 425.917969 453.46875 426.21875 452.144531 426.820312 C 450.816406 427.414062 449.546875 428.320312 448.335938 429.527344 C 447.164062 430.703125 446.285156 431.921875 445.699219 433.195312 C 445.121094 434.460938 444.832031 435.742188 444.835938 437.03125 C 444.839844 438.320312 445.132812 439.597656 445.726562 440.871094 C 446.324219 442.144531 447.214844 443.371094 448.390625 444.546875 C 448.796875 444.953125 449.214844 445.339844 449.65625 445.703125 C 450.089844 446.058594 450.546875 446.398438 451.011719 446.714844 C 451.484375 447.03125 451.949219 447.320312 452.421875 447.578125 C 452.894531 447.832031 453.304688 448.039062 453.65625 448.1875 C 453.996094 448.335938 454.296875 448.363281 454.550781 448.273438 C 454.800781 448.183594 455.039062 448.023438 455.265625 447.796875 L 461.148438 441.914062 C 461.300781 441.757812 461.417969 441.601562 461.5 441.449219 C 461.578125 441.292969 461.625 441.140625 461.636719 440.980469 C 461.648438 440.828125 461.625 440.679688 461.574219 440.542969 C 461.519531 440.402344 461.429688 440.273438 461.308594 440.152344 L 456.316406 435.164062 C 456.246094 435.09375 456.167969 435.054688 456.070312 435.042969 C 455.972656 435.03125 455.871094 435.050781 455.738281 435.101562 C 455.617188 435.148438 455.46875 435.238281 455.308594 435.363281 C 455.144531 435.484375 454.957031 435.65625 454.742188 435.871094 C 454.332031 436.28125 454.074219 436.609375 453.984375 436.859375 C 453.882812 437.105469 453.90625 437.296875 454.042969 437.433594 L 456.84375 440.234375 L 453.417969 443.660156 C 452.980469 443.53125 452.5625 443.335938 452.15625 443.089844 C 451.753906 442.835938 451.386719 442.542969 451.050781 442.207031 C 450.367188 441.527344 449.847656 440.789062 449.507812 440 C 449.160156 439.210938 449.003906 438.398438 449.03125 437.558594 C 449.058594 436.722656 449.289062 435.867188 449.707031 435 C 450.125 434.132812 450.757812 433.273438 451.601562 432.433594 C 452.371094 431.660156 453.183594 431.066406 454.042969 430.65625 C 454.894531 430.238281 455.761719 430.011719 456.621094 429.96875 C 457.484375 429.925781 458.328125 430.070312 459.15625 430.40625 C 459.984375 430.734375 460.753906 431.257812 461.472656 431.972656 C 462.144531 432.644531 462.660156 433.300781 463.03125 433.945312 C 463.398438 434.585938 463.6875 435.167969 463.894531 435.695312 C 464.101562 436.222656 464.246094 436.664062 464.324219 437.027344 C 464.40625 437.378906 464.5 437.605469 464.601562 437.707031 C 464.667969 437.773438 464.742188 437.816406 464.832031 437.828125 C 464.921875 437.839844 465.027344 437.8125 465.160156 437.75 C 465.289062 437.695312 465.445312 437.589844 465.625 437.449219 C 465.800781 437.3125 466.003906 437.128906 466.222656 436.910156 Z M 378.109375 405.535156 C 378.699219 404.941406 379.125 404.339844 379.382812 403.714844 C 379.636719 403.09375 379.777344 402.46875 379.804688 401.851562 C 379.832031 401.230469 379.769531 400.613281 379.625 400 C 379.472656 399.390625 379.289062 398.792969 379.078125 398.214844 C 378.867188 397.636719 378.652344 397.074219 378.4375 396.527344 C 378.214844 395.984375 378.050781 395.472656 377.9375 394.984375 C 377.824219 394.496094 377.796875 394.039062 377.855469 393.621094 C 377.917969 393.203125 378.113281 392.828125 378.441406 392.5 C 378.660156 392.28125 378.910156 392.113281 379.1875 391.992188 C 379.46875 391.875 379.757812 391.828125 380.0625 391.855469 C 380.367188 391.875 380.683594 391.96875 381.003906 392.132812 C 381.328125 392.292969 381.652344 392.539062 381.980469 392.867188 C 382.402344 393.289062 382.734375 393.71875 382.976562 394.179688 C 383.226562 394.628906 383.421875 395.050781 383.558594 395.445312 C 383.703125 395.835938 383.808594 396.175781 383.886719 396.464844 C 383.964844 396.753906 384.042969 396.941406 384.128906 397.027344 C 384.210938 397.109375 384.300781 397.152344 384.398438 397.15625 C 384.492188 397.164062 384.605469 397.128906 384.726562 397.054688 C 384.855469 396.980469 385 396.875 385.164062 396.734375 C 385.324219 396.59375 385.515625 396.410156 385.734375 396.191406 C 385.933594 395.992188 386.097656 395.824219 386.226562 395.6875 C 386.351562 395.546875 386.445312 395.421875 386.515625 395.3125 C 386.582031 395.207031 386.632812 395.117188 386.660156 395.035156 C 386.6875 394.953125 386.699219 394.839844 386.699219 394.683594 C 386.699219 394.535156 386.640625 394.28125 386.515625 393.929688 C 386.390625 393.582031 386.226562 393.207031 386.011719 392.8125 C 385.800781 392.414062 385.542969 392.015625 385.246094 391.609375 C 384.953125 391.207031 384.625 390.832031 384.277344 390.484375 C 383.597656 389.808594 382.867188 389.25 382.089844 388.820312 C 381.308594 388.390625 380.519531 388.128906 379.71875 388.039062 C 378.917969 387.941406 378.117188 388.035156 377.320312 388.308594 C 376.523438 388.585938 375.765625 389.078125 375.058594 389.78125 C 374.441406 390.402344 374.003906 391.019531 373.742188 391.648438 C 373.484375 392.269531 373.339844 392.890625 373.308594 393.503906 C 373.28125 394.125 373.335938 394.734375 373.476562 395.34375 C 373.617188 395.941406 373.792969 396.539062 374.007812 397.121094 C 374.222656 397.695312 374.433594 398.253906 374.640625 398.792969 C 374.847656 399.328125 375.007812 399.839844 375.113281 400.316406 C 375.222656 400.792969 375.246094 401.246094 375.1875 401.671875 C 375.132812 402.09375 374.9375 402.46875 374.597656 402.804688 C 374.308594 403.09375 374 403.304688 373.652344 403.433594 C 373.308594 403.566406 372.957031 403.605469 372.601562 403.566406 C 372.238281 403.523438 371.867188 403.402344 371.488281 403.203125 C 371.113281 403 370.742188 402.714844 370.375 402.351562 C 369.820312 401.792969 369.394531 401.242188 369.09375 400.691406 C 368.796875 400.148438 368.574219 399.644531 368.421875 399.1875 C 368.269531 398.726562 368.160156 398.335938 368.089844 398.023438 C 368.023438 397.703125 367.929688 397.488281 367.828125 397.382812 C 367.75 397.304688 367.664062 397.257812 367.566406 397.246094 C 367.464844 397.230469 367.347656 397.253906 367.214844 397.316406 C 367.085938 397.382812 366.925781 397.488281 366.75 397.632812 C 366.578125 397.777344 366.378906 397.964844 366.136719 398.203125 C 365.789062 398.554688 365.539062 398.84375 365.394531 399.074219 C 365.25 399.296875 365.175781 399.511719 365.179688 399.710938 C 365.175781 399.90625 365.226562 400.1875 365.320312 400.535156 C 365.414062 400.894531 365.574219 401.296875 365.789062 401.753906 C 366.007812 402.203125 366.292969 402.691406 366.644531 403.210938 C 366.996094 403.734375 367.433594 404.25 367.945312 404.757812 C 368.695312 405.511719 369.503906 406.121094 370.363281 406.585938 C 371.226562 407.050781 372.09375 407.335938 372.988281 407.4375 C 373.871094 407.542969 374.753906 407.445312 375.628906 407.148438 C 376.507812 406.847656 377.332031 406.3125 378.109375 405.535156 Z M 396.828125 418 C 398.109375 416.714844 399.074219 415.464844 399.714844 414.230469 C 400.367188 412.992188 400.710938 411.785156 400.753906 410.589844 C 400.796875 409.398438 400.535156 408.222656 399.976562 407.074219 C 399.414062 405.921875 398.578125 404.789062 397.457031 403.664062 C 396.285156 402.492188 395.078125 401.636719 393.832031 401.109375 C 392.585938 400.578125 391.328125 400.351562 390.054688 400.417969 C 388.785156 400.488281 387.519531 400.847656 386.261719 401.5 C 385 402.148438 383.769531 403.070312 382.574219 404.265625 C 381.269531 405.570312 380.289062 406.839844 379.621094 408.078125 C 378.953125 409.3125 378.597656 410.527344 378.554688 411.71875 C 378.507812 412.90625 378.757812 414.078125 379.316406 415.234375 C 379.875 416.390625 380.730469 417.542969 381.878906 418.695312 C 383.046875 419.859375 384.246094 420.710938 385.488281 421.242188 C 386.730469 421.773438 387.988281 422.003906 389.261719 421.933594 C 390.539062 421.863281 391.8125 421.492188 393.082031 420.828125 C 394.355469 420.167969 395.605469 419.222656 396.828125 418 Z M 393.515625 415.011719 C 394.296875 414.230469 394.941406 413.460938 395.453125 412.703125 C 395.96875 411.949219 396.304688 411.191406 396.464844 410.445312 C 396.625 409.703125 396.585938 408.960938 396.34375 408.226562 C 396.105469 407.492188 395.621094 406.757812 394.890625 406.027344 C 394.152344 405.289062 393.394531 404.808594 392.621094 404.589844 C 391.847656 404.378906 391.078125 404.351562 390.308594 404.507812 C 389.542969 404.667969 388.785156 404.996094 388.035156 405.488281 C 387.285156 405.988281 386.570312 406.582031 385.875 407.273438 C 385.066406 408.082031 384.40625 408.867188 383.882812 409.632812 C 383.359375 410.394531 383.015625 411.152344 382.851562 411.898438 C 382.683594 412.644531 382.722656 413.382812 382.96875 414.109375 C 383.21875 414.835938 383.707031 415.570312 384.449219 416.3125 C 385.183594 417.046875 385.941406 417.523438 386.707031 417.746094 C 387.476562 417.96875 388.253906 417.996094 389.027344 417.828125 C 389.804688 417.660156 390.570312 417.324219 391.324219 416.820312 C 392.078125 416.324219 392.8125 415.714844 393.515625 415.011719 Z M 412.648438 433.820312 C 413.929688 432.539062 414.894531 431.285156 415.539062 430.050781 C 416.1875 428.816406 416.535156 427.605469 416.574219 426.410156 C 416.617188 425.21875 416.355469 424.046875 415.800781 422.894531 C 415.238281 421.742188 414.398438 420.609375 413.277344 419.484375 C 412.109375 418.316406 410.898438 417.457031 409.652344 416.929688 C 408.40625 416.398438 407.148438 416.171875 405.878906 416.238281 C 404.605469 416.3125 403.34375 416.667969 402.082031 417.320312 C 400.820312 417.96875 399.589844 418.890625 398.394531 420.089844 C 397.089844 421.390625 396.109375 422.664062 395.445312 423.898438 C 394.777344 425.136719 394.421875 426.347656 394.375 427.539062 C 394.328125 428.726562 394.582031 429.898438 395.136719 431.054688 C 395.695312 432.214844 396.550781 433.367188 397.699219 434.515625 C 398.867188 435.683594 400.066406 436.53125 401.308594 437.066406 C 402.550781 437.59375 403.808594 437.824219 405.082031 437.753906 C 406.359375 437.683594 407.636719 437.316406 408.90625 436.652344 C 410.175781 435.988281 411.425781 435.046875 412.648438 433.820312 Z M 409.339844 430.832031 C 410.117188 430.050781 410.761719 429.28125 411.277344 428.527344 C 411.792969 427.769531 412.125 427.011719 412.285156 426.269531 C 412.445312 425.523438 412.40625 424.78125 412.167969 424.050781 C 411.925781 423.3125 411.445312 422.582031 410.710938 421.847656 C 409.972656 421.109375 409.214844 420.632812 408.441406 420.414062 C 407.671875 420.203125 406.898438 420.171875 406.128906 420.332031 C 405.363281 420.492188 404.605469 420.820312 403.855469 421.308594 C 403.109375 421.808594 402.390625 422.402344 401.695312 423.09375 C 400.890625 423.902344 400.226562 424.691406 399.707031 425.457031 C 399.183594 426.21875 398.839844 426.976562 398.671875 427.71875 C 398.503906 428.464844 398.542969 429.203125 398.792969 429.929688 C 399.039062 430.660156 399.527344 431.390625 400.269531 432.132812 C 401.007812 432.871094 401.761719 433.34375 402.53125 433.570312 C 403.300781 433.792969 404.074219 433.816406 404.851562 433.648438 C 405.628906 433.480469 406.390625 433.148438 407.144531 432.644531 C 407.898438 432.144531 408.632812 431.535156 409.339844 430.832031 Z M 420.855469 455.042969 L 434.140625 441.757812 C 434.214844 441.6875 434.265625 441.597656 434.289062 441.492188 C 434.3125 441.398438 434.300781 441.28125 434.25 441.136719 C 434.199219 441 434.097656 440.828125 433.9375 440.636719 C 433.78125 440.441406 433.578125 440.214844 433.316406 439.953125 C 433.042969 439.683594 432.804688 439.46875 432.613281 439.3125 C 432.421875 439.152344 432.246094 439.046875 432.097656 438.984375 C 431.945312 438.925781 431.8125 438.902344 431.707031 438.914062 C 431.601562 438.933594 431.507812 438.980469 431.433594 439.054688 L 424.5 445.988281 C 423.976562 446.511719 423.425781 447.070312 422.863281 447.660156 C 422.292969 448.25 421.753906 448.820312 421.242188 449.378906 L 421.230469 449.367188 C 421.398438 448.925781 421.5625 448.480469 421.722656 448.03125 C 421.882812 447.585938 422.046875 447.125 422.207031 446.65625 C 422.371094 446.1875 422.527344 445.710938 422.679688 445.234375 C 422.832031 444.753906 422.992188 444.265625 423.152344 443.769531 L 425.675781 435.484375 C 425.828125 435.046875 425.9375 434.65625 426 434.320312 C 426.066406 433.980469 426.078125 433.671875 426.035156 433.402344 C 425.992188 433.136719 425.898438 432.878906 425.75 432.628906 C 425.601562 432.378906 425.382812 432.113281 425.09375 431.824219 L 423.480469 430.210938 C 423.175781 429.90625 422.828125 429.738281 422.445312 429.710938 C 422.054688 429.679688 421.679688 429.84375 421.324219 430.199219 L 408.035156 443.488281 C 407.960938 443.558594 407.910156 443.652344 407.894531 443.75 C 407.867188 443.847656 407.886719 443.96875 407.941406 444.105469 C 408 444.25 408.105469 444.417969 408.257812 444.617188 C 408.40625 444.816406 408.617188 445.050781 408.882812 445.316406 C 409.15625 445.589844 409.394531 445.804688 409.589844 445.953125 C 409.792969 446.105469 409.957031 446.210938 410.109375 446.273438 C 410.25 446.332031 410.375 446.355469 410.476562 446.332031 C 410.578125 446.316406 410.667969 446.265625 410.742188 446.191406 L 418.476562 438.457031 C 419.054688 437.878906 419.609375 437.3125 420.140625 436.753906 C 420.671875 436.191406 421.195312 435.625 421.710938 435.046875 L 421.734375 435.066406 C 421.460938 435.691406 421.195312 436.355469 420.9375 437.050781 C 420.683594 437.746094 420.460938 438.40625 420.257812 439.03125 L 417.03125 449.621094 C 416.835938 450.191406 416.695312 450.671875 416.609375 451.0625 C 416.519531 451.457031 416.488281 451.808594 416.511719 452.109375 C 416.535156 452.414062 416.617188 452.691406 416.761719 452.9375 C 416.898438 453.183594 417.105469 453.445312 417.371094 453.710938 L 418.648438 454.988281 C 418.792969 455.132812 418.960938 455.253906 419.140625 455.355469 C 419.324219 455.453125 419.511719 455.507812 419.710938 455.519531 C 419.902344 455.53125 420.09375 455.5 420.292969 455.425781 C 420.496094 455.34375 420.679688 455.21875 420.855469 455.042969 "/>
</g>
</svg>
