<?xml version="1.0" encoding="UTF-8"?>
<svg xmlns="http://www.w3.org/2000/svg" xmlns:xlink="http://www.w3.org/1999/xlink" width="810pt" height="809.999993pt" viewBox="0 0 810 809.999993" version="1.2">
<defs>
<clipPath id="clip1">
  <path d="M 82 234.703125 L 794 234.703125 L 794 488 L 82 488 Z M 82 234.703125 "/>
</clipPath>
</defs>
<g id="surface1">
<g clip-path="url(#clip1)" clip-rule="nonzero">
<path style=" stroke:none;fill-rule:nonzero;fill:rgb(80.389404%,89.408875%,70.588684%);fill-opacity:1;" d="M 735.644531 234.703125 L 141.15625 234.703125 C 108.984375 234.703125 82.902344 260.757812 82.902344 292.898438 L 82.902344 334.347656 C 82.902344 366.488281 108.984375 392.542969 141.15625 392.542969 L 193.042969 392.542969 C 197.675781 392.542969 202.332031 393.609375 206.195312 396.160156 C 225.4375 408.847656 220.53125 445.773438 216.9375 479.386719 C 216.082031 487.363281 227.011719 490.472656 230.46875 483.230469 C 243.847656 455.21875 260.640625 421.753906 271.230469 406.859375 C 277.683594 397.785156 288.253906 392.542969 299.394531 392.542969 L 735.640625 392.542969 C 767.8125 392.542969 793.894531 366.488281 793.894531 334.347656 L 793.894531 292.898438 C 793.894531 260.757812 767.816406 234.703125 735.644531 234.703125 Z M 735.644531 234.703125 "/>
</g>
<path style=" stroke:none;fill-rule:nonzero;fill:rgb(100%,100%,100%);fill-opacity:1;" d="M 190.8125 357.523438 C 190.054688 356.449219 188.566406 356.1875 187.492188 356.949219 C 171.210938 368.402344 148.800781 364.867188 136.792969 349.21875 C 138.675781 347.582031 140.082031 345.472656 140.785156 342.996094 C 141.144531 341.730469 140.410156 340.414062 139.144531 340.054688 C 137.878906 339.691406 136.558594 340.429688 136.199219 341.695312 C 134.988281 345.960938 130.414062 348.589844 125.082031 348.085938 C 123.777344 347.964844 122.609375 348.925781 122.484375 350.234375 C 122.359375 351.542969 123.324219 352.707031 124.632812 352.828125 C 125.226562 352.882812 125.808594 352.910156 126.386719 352.910156 C 128.652344 352.910156 130.792969 352.484375 132.714844 351.703125 C 140.875 362.609375 153.453125 368.445312 166.226562 368.445312 C 174.542969 368.445312 182.9375 365.976562 190.238281 360.839844 C 191.3125 360.082031 191.570312 358.597656 190.8125 357.523438 Z M 190.8125 357.523438 "/>
<path style=" stroke:none;fill-rule:nonzero;fill:rgb(0%,0%,0%);fill-opacity:1;" d="M 205.425781 328.445312 C 203.367188 328.445312 201.699219 326.78125 201.699219 324.726562 C 201.699219 319.527344 197.464844 315.292969 192.257812 315.292969 C 187.050781 315.292969 182.816406 319.527344 182.816406 324.726562 C 182.816406 326.78125 181.148438 328.445312 179.09375 328.445312 C 177.035156 328.445312 175.367188 326.78125 175.367188 324.726562 C 175.367188 315.421875 182.945312 307.851562 192.257812 307.851562 C 201.574219 307.851562 209.148438 315.421875 209.148438 324.726562 C 209.148438 326.78125 207.480469 328.445312 205.425781 328.445312 Z M 205.425781 328.445312 "/>
<path style=" stroke:none;fill-rule:nonzero;fill:rgb(0%,0%,0%);fill-opacity:1;" d="M 141.671875 328.445312 C 139.613281 328.445312 137.945312 326.78125 137.945312 324.726562 C 137.945312 319.527344 133.710938 315.292969 128.503906 315.292969 C 123.296875 315.292969 119.0625 319.527344 119.0625 324.726562 C 119.0625 326.78125 117.394531 328.445312 115.335938 328.445312 C 113.28125 328.445312 111.613281 326.78125 111.613281 324.726562 C 111.613281 315.421875 119.191406 307.851562 128.503906 307.851562 C 137.816406 307.851562 145.394531 315.421875 145.394531 324.726562 C 145.394531 326.78125 143.726562 328.445312 141.671875 328.445312 Z M 141.671875 328.445312 "/>
</g>
</svg>
