<?xml version="1.0" encoding="UTF-8"?>
<svg xmlns="http://www.w3.org/2000/svg" xmlns:xlink="http://www.w3.org/1999/xlink" width="810pt" height="809.999993pt" viewBox="0 0 810 809.999993" version="1.2">
<defs>
<clipPath id="clip1">
  <path d="M 126.011719 181.835938 L 564 181.835938 L 564 627 L 126.011719 627 Z M 126.011719 181.835938 "/>
</clipPath>
</defs>
<g id="surface1">
<g clip-path="url(#clip1)" clip-rule="nonzero">
<path style=" stroke:none;fill-rule:nonzero;fill:rgb(100%,93.328857%,66.268921%);fill-opacity:1;" d="M 521.5625 181.835938 L 168.480469 181.835938 C 145.085938 181.835938 126.121094 200.804688 126.121094 224.207031 L 126.121094 525.3125 C 126.121094 548.714844 145.085938 567.683594 168.480469 567.683594 L 379.542969 567.683594 C 385.1875 568.539062 390.339844 571.554688 393.6875 576.273438 C 400.238281 585.496094 410.625 606.222656 418.898438 623.570312 C 421.035156 628.054688 427.796875 626.128906 427.269531 621.1875 C 425.042969 600.371094 422.011719 577.503906 433.910156 569.648438 C 435.480469 568.609375 437.269531 568.003906 439.121094 567.683594 L 521.5625 567.683594 C 544.953125 567.683594 563.917969 548.714844 563.917969 525.3125 L 563.917969 224.207031 C 563.921875 200.804688 544.957031 181.835938 521.5625 181.835938 Z M 521.5625 181.835938 "/>
</g>
<path style=" stroke:none;fill-rule:nonzero;fill:rgb(18.429565%,18.429565%,18.429565%);fill-opacity:1;" d="M 473.476562 506.574219 C 473.476562 507.496094 473.386719 508.410156 473.207031 509.316406 C 473.027344 510.222656 472.761719 511.101562 472.410156 511.953125 C 472.054688 512.804688 471.621094 513.613281 471.109375 514.382812 C 470.597656 515.148438 470.015625 515.859375 469.363281 516.511719 C 468.710938 517.164062 468 517.746094 467.234375 518.257812 C 466.464844 518.773438 465.65625 519.207031 464.804688 519.558594 C 463.953125 519.910156 463.074219 520.179688 462.167969 520.359375 C 461.265625 520.539062 460.351562 520.628906 459.429688 520.628906 C 458.503906 520.628906 457.59375 520.539062 456.6875 520.359375 C 455.78125 520.179688 454.902344 519.910156 454.050781 519.558594 C 453.199219 519.207031 452.390625 518.773438 451.621094 518.257812 C 450.855469 517.746094 450.144531 517.164062 449.492188 516.511719 C 448.839844 515.859375 448.257812 515.148438 447.746094 514.382812 C 447.234375 513.613281 446.800781 512.804688 446.449219 511.953125 C 446.09375 511.101562 445.828125 510.222656 445.648438 509.316406 C 445.46875 508.410156 445.378906 507.496094 445.378906 506.574219 C 445.378906 505.652344 445.46875 504.738281 445.648438 503.832031 C 445.828125 502.925781 446.09375 502.046875 446.449219 501.195312 C 446.800781 500.34375 447.234375 499.53125 447.746094 498.765625 C 448.257812 498 448.839844 497.289062 449.492188 496.636719 C 450.144531 495.984375 450.855469 495.402344 451.621094 494.886719 C 452.390625 494.375 453.199219 493.941406 454.050781 493.589844 C 454.902344 493.234375 455.78125 492.96875 456.6875 492.789062 C 457.59375 492.609375 458.503906 492.519531 459.429688 492.519531 C 460.351562 492.519531 461.265625 492.609375 462.167969 492.789062 C 463.074219 492.96875 463.953125 493.234375 464.804688 493.589844 C 465.65625 493.941406 466.464844 494.375 467.234375 494.886719 C 468 495.402344 468.710938 495.984375 469.363281 496.636719 C 470.015625 497.289062 470.597656 498 471.109375 498.765625 C 471.621094 499.53125 472.054688 500.34375 472.410156 501.195312 C 472.761719 502.046875 473.027344 502.925781 473.207031 503.832031 C 473.386719 504.738281 473.476562 505.652344 473.476562 506.574219 Z M 473.476562 506.574219 "/>
<path style=" stroke:none;fill-rule:nonzero;fill:rgb(100%,100%,100%);fill-opacity:1;" d="M 472.621094 501.753906 C 475.285156 509.046875 471.535156 517.117188 464.246094 519.777344 L 454.601562 493.375 C 461.890625 490.710938 469.957031 494.464844 472.621094 501.753906 Z M 472.621094 501.753906 "/>
<path style=" stroke:none;fill-rule:nonzero;fill:rgb(18.429565%,18.429565%,18.429565%);fill-opacity:1;" d="M 516.863281 506.574219 C 516.863281 507.496094 516.773438 508.410156 516.59375 509.316406 C 516.414062 510.222656 516.148438 511.101562 515.796875 511.953125 C 515.441406 512.804688 515.007812 513.613281 514.496094 514.382812 C 513.984375 515.148438 513.402344 515.859375 512.75 516.511719 C 512.097656 517.164062 511.386719 517.746094 510.621094 518.257812 C 509.855469 518.773438 509.042969 519.207031 508.191406 519.558594 C 507.339844 519.910156 506.460938 520.179688 505.554688 520.359375 C 504.652344 520.539062 503.738281 520.628906 502.816406 520.628906 C 501.890625 520.628906 500.980469 520.539062 500.074219 520.359375 C 499.167969 520.179688 498.289062 519.910156 497.4375 519.558594 C 496.585938 519.207031 495.777344 518.773438 495.007812 518.257812 C 494.242188 517.746094 493.53125 517.164062 492.878906 516.511719 C 492.226562 515.859375 491.644531 515.148438 491.132812 514.382812 C 490.621094 513.613281 490.1875 512.804688 489.835938 511.953125 C 489.480469 511.101562 489.214844 510.222656 489.035156 509.316406 C 488.855469 508.410156 488.765625 507.496094 488.765625 506.574219 C 488.765625 505.652344 488.855469 504.738281 489.035156 503.832031 C 489.214844 502.925781 489.480469 502.046875 489.835938 501.195312 C 490.1875 500.34375 490.621094 499.53125 491.132812 498.765625 C 491.644531 498 492.226562 497.289062 492.878906 496.636719 C 493.53125 495.984375 494.242188 495.402344 495.007812 494.886719 C 495.777344 494.375 496.585938 493.941406 497.4375 493.589844 C 498.289062 493.234375 499.167969 492.96875 500.074219 492.789062 C 500.980469 492.609375 501.890625 492.519531 502.816406 492.519531 C 503.738281 492.519531 504.652344 492.609375 505.554688 492.789062 C 506.460938 492.96875 507.339844 493.234375 508.191406 493.589844 C 509.042969 493.941406 509.855469 494.375 510.621094 494.886719 C 511.386719 495.402344 512.097656 495.984375 512.75 496.636719 C 513.402344 497.289062 513.984375 498 514.496094 498.765625 C 515.007812 499.53125 515.441406 500.34375 515.796875 501.195312 C 516.148438 502.046875 516.414062 502.925781 516.59375 503.832031 C 516.773438 504.738281 516.863281 505.652344 516.863281 506.574219 Z M 516.863281 506.574219 "/>
<path style=" stroke:none;fill-rule:nonzero;fill:rgb(100%,100%,100%);fill-opacity:1;" d="M 516.007812 501.753906 C 518.671875 509.046875 514.921875 517.117188 507.632812 519.777344 L 497.988281 493.375 C 505.277344 490.710938 513.34375 494.464844 516.007812 501.753906 Z M 516.007812 501.753906 "/>
<path style=" stroke:none;fill-rule:nonzero;fill:rgb(18.429565%,18.429565%,18.429565%);fill-opacity:1;" d="M 481.121094 541.496094 C 476.628906 541.496094 472.976562 537.84375 472.976562 533.351562 C 472.976562 528.859375 476.628906 525.203125 481.121094 525.203125 C 485.609375 525.203125 489.265625 528.859375 489.265625 533.351562 C 489.265625 537.84375 485.609375 541.496094 481.121094 541.496094 Z M 481.121094 528.796875 C 478.613281 528.796875 476.570312 530.839844 476.570312 533.351562 C 476.570312 535.863281 478.609375 537.90625 481.121094 537.90625 C 483.632812 537.90625 485.671875 535.863281 485.671875 533.351562 C 485.671875 530.839844 483.632812 528.796875 481.121094 528.796875 Z M 481.121094 528.796875 "/>
</g>
</svg>
