<?xml version="1.0" encoding="UTF-8"?>
<svg xmlns="http://www.w3.org/2000/svg" xmlns:xlink="http://www.w3.org/1999/xlink" width="810pt" height="809.999993pt" viewBox="0 0 810 809.999993" version="1.2">
<defs>
<clipPath id="clip1">
  <path d="M 307 55 L 713 55 L 713 460 L 307 460 Z M 307 55 "/>
</clipPath>
<clipPath id="clip2">
  <path d="M 622.691406 681.203125 L 158.023438 576.808594 L 287.570312 0.183594 L 752.238281 104.578125 Z M 622.691406 681.203125 "/>
</clipPath>
<clipPath id="clip3">
  <path d="M 622.691406 681.203125 L 158.023438 576.808594 L 287.570312 0.183594 L 752.238281 104.578125 Z M 622.691406 681.203125 "/>
</clipPath>
<clipPath id="clip4">
  <path d="M 177 404 L 374 404 L 374 601 L 177 601 Z M 177 404 "/>
</clipPath>
<clipPath id="clip5">
  <path d="M 622.691406 681.203125 L 158.023438 576.808594 L 287.570312 0.183594 L 752.238281 104.578125 Z M 622.691406 681.203125 "/>
</clipPath>
<clipPath id="clip6">
  <path d="M 622.691406 681.203125 L 158.023438 576.808594 L 287.570312 0.183594 L 752.238281 104.578125 Z M 622.691406 681.203125 "/>
</clipPath>
<clipPath id="clip7">
  <path d="M 217 502 L 294 502 L 294 579 L 217 579 Z M 217 502 "/>
</clipPath>
<clipPath id="clip8">
  <path d="M 622.691406 681.203125 L 158.023438 576.808594 L 287.570312 0.183594 L 752.238281 104.578125 Z M 622.691406 681.203125 "/>
</clipPath>
<clipPath id="clip9">
  <path d="M 622.691406 681.203125 L 158.023438 576.808594 L 287.570312 0.183594 L 752.238281 104.578125 Z M 622.691406 681.203125 "/>
</clipPath>
<clipPath id="clip10">
  <path d="M 393 305 L 498 305 L 498 410 L 393 410 Z M 393 305 "/>
</clipPath>
<clipPath id="clip11">
  <path d="M 622.691406 681.203125 L 158.023438 576.808594 L 287.570312 0.183594 L 752.238281 104.578125 Z M 622.691406 681.203125 "/>
</clipPath>
<clipPath id="clip12">
  <path d="M 622.691406 681.203125 L 158.023438 576.808594 L 287.570312 0.183594 L 752.238281 104.578125 Z M 622.691406 681.203125 "/>
</clipPath>
</defs>
<g id="surface1">
<g clip-path="url(#clip1)" clip-rule="nonzero">
<g clip-path="url(#clip2)" clip-rule="nonzero">
<g clip-path="url(#clip3)" clip-rule="nonzero">
<path style=" stroke:none;fill-rule:nonzero;fill:rgb(80.389404%,89.408875%,70.588684%);fill-opacity:1;" d="M 465.660156 454.960938 C 356.617188 430.460938 288.097656 322.207031 312.59375 213.179688 C 337.085938 104.152344 445.320312 35.625 554.367188 60.125 C 663.402344 84.621094 731.933594 192.863281 707.4375 301.890625 C 682.945312 410.917969 574.695312 479.457031 465.660156 454.960938 "/>
</g>
</g>
</g>
<g clip-path="url(#clip4)" clip-rule="nonzero">
<g clip-path="url(#clip5)" clip-rule="nonzero">
<g clip-path="url(#clip6)" clip-rule="nonzero">
<path style=" stroke:none;fill-rule:nonzero;fill:rgb(100%,93.328857%,66.268921%);fill-opacity:1;" d="M 254.078125 598.394531 C 201.273438 586.53125 168.089844 534.109375 179.953125 481.308594 C 191.8125 428.507812 244.230469 395.3125 297.039062 407.175781 C 349.84375 419.039062 383.039062 471.46875 371.175781 524.269531 C 359.3125 577.070312 306.882812 610.257812 254.078125 598.394531 "/>
</g>
</g>
</g>
<g clip-path="url(#clip7)" clip-rule="nonzero">
<g clip-path="url(#clip8)" clip-rule="nonzero">
<g clip-path="url(#clip9)" clip-rule="nonzero">
<path style=" stroke:none;fill-rule:nonzero;fill:rgb(100%,100%,100%);fill-opacity:1;" d="M 247.277344 577.125 C 226.90625 572.546875 214.113281 552.328125 218.6875 531.96875 C 223.261719 511.605469 243.476562 498.804688 263.84375 503.378906 C 284.203125 507.953125 297.011719 528.175781 292.433594 548.539062 C 287.859375 568.898438 267.636719 581.699219 247.277344 577.125 "/>
</g>
</g>
</g>
<g clip-path="url(#clip10)" clip-rule="nonzero">
<g clip-path="url(#clip11)" clip-rule="nonzero">
<g clip-path="url(#clip12)" clip-rule="nonzero">
<path style=" stroke:none;fill-rule:nonzero;fill:rgb(100%,100%,100%);fill-opacity:1;" d="M 434.261719 408.519531 C 406.117188 402.199219 388.414062 374.257812 394.742188 346.101562 C 401.0625 317.957031 429.015625 300.261719 457.160156 306.585938 C 485.320312 312.910156 503.003906 340.859375 496.683594 369.003906 C 490.355469 397.160156 462.417969 414.847656 434.261719 408.519531 "/>
</g>
</g>
</g>
</g>
</svg>
